<svg width="32" height="32" viewBox="0 0 32 32" fill="none" xmlns="http://www.w3.org/2000/svg">
<g clip-path="url(#clip0_1722_1691)">
<path d="M9.31891 18.5034L8.4835 21.6221L5.43011 21.6867C4.51759 19.9942 4 18.0577 4 15.9999C4 14.01 4.48394 12.1335 5.34175 10.4812H5.34241L8.06078 10.9796L9.25159 13.6816C9.00236 14.4082 8.86652 15.1882 8.86652 15.9999C8.86661 16.8808 9.02617 17.7247 9.31891 18.5034Z" fill="#FBBB00"/>
<path d="M27.7902 13.7583C27.928 14.4842 27.9999 15.2339 27.9999 16.0001C27.9999 16.8592 27.9095 17.6972 27.7375 18.5056C27.1533 21.2563 25.6269 23.6583 23.5124 25.3581L23.5118 25.3574L20.0878 25.1827L19.6032 22.1576C21.0063 21.3348 22.1028 20.0471 22.6804 18.5056H16.2637V13.7583H22.774H27.7902Z" fill="#518EF8"/>
<path d="M23.5114 25.3575L23.5121 25.3581C21.4556 27.0111 18.8433 28.0001 15.9996 28.0001C11.4297 28.0001 7.45652 25.4459 5.42969 21.6869L9.31849 18.5037C10.3319 21.2083 12.9409 23.1336 15.9996 23.1336C17.3143 23.1336 18.546 22.7781 19.6029 22.1577L23.5114 25.3575Z" fill="#28B446"/>
<path d="M23.6596 6.76263L19.7721 9.94525C18.6783 9.26153 17.3853 8.86656 16 8.86656C12.8721 8.86656 10.2143 10.8802 9.25164 13.6818L5.34241 10.4813H5.34175C7.33891 6.63077 11.3622 4 16 4C18.9117 4 21.5813 5.03716 23.6596 6.76263Z" fill="#F14336"/>
</g>
<defs>
<clipPath id="clip0_1722_1691">
<rect width="24" height="24" fill="white" transform="translate(4 4)"/>
</clipPath>
</defs>
</svg>
