<svg width="14" height="10" viewBox="0 0 14 10" fill="none" xmlns="http://www.w3.org/2000/svg">
<path d="M7.0449 2.10596C5.66641 2.10596 4.54876 3.22343 4.54876 4.60171C4.54876 5.97978 5.66641 7.09746 7.0449 7.09746C8.4234 7.09746 9.54105 5.97999 9.54105 4.60171C9.54105 3.22343 8.4234 2.10596 7.0449 2.10596ZM7.0449 6.26554C6.12736 6.26554 5.36166 5.50101 5.36166 4.5836C5.36166 3.66619 6.10821 2.91977 7.02575 2.91977C7.9435 2.91977 8.68985 3.6662 8.68985 4.5836C8.68985 5.501 7.96265 6.26554 7.0449 6.26554ZM13.652 4.4869C13.6472 4.4659 13.6493 4.44368 13.643 4.42308C13.6403 4.41436 13.6349 4.40937 13.6318 4.40167C13.6274 4.38982 13.6285 4.37588 13.6225 4.36444C12.4124 1.59437 9.80461 0 7.02557 0C4.24653 0 1.58648 1.59146 0.375845 4.36174C0.370645 4.3734 0.371477 4.38545 0.367304 4.39877C0.364405 4.40688 0.358372 4.41145 0.355668 4.41914C0.34922 4.44015 0.351716 4.46198 0.347764 4.4832C0.34008 4.52063 0.333008 4.55703 0.333008 4.59488C0.333008 4.63315 0.34008 4.66851 0.347764 4.70655C0.351924 4.72735 0.349233 4.75002 0.355681 4.76999C0.358385 4.77935 0.364418 4.7833 0.367317 4.79183C0.371685 4.80327 0.370645 4.81741 0.375845 4.82885C1.58668 7.5983 4.22074 9.16667 6.99978 9.16667C9.77903 9.16667 12.4125 7.60162 13.6229 4.83154C13.6289 4.81968 13.6277 4.8072 13.6322 4.7941C13.6352 4.78682 13.6408 4.78141 13.6433 4.7733C13.6497 4.75292 13.6476 4.73067 13.6522 4.70945C13.6595 4.67223 13.6663 4.63583 13.6663 4.59735C13.6663 4.56075 13.6595 4.52456 13.652 4.4869ZM6.99977 8.33476C4.64278 8.33476 2.32284 7.0925 1.18293 4.59529C2.31202 2.1064 4.66297 0.832112 7.02578 0.832112C9.38776 0.832112 11.6865 2.10786 12.816 4.59799C11.6873 7.08604 9.36257 8.33476 6.99977 8.33476Z" fill="black"/>
</svg>
