<svg width="10" height="10" viewBox="0 0 10 10" fill="none" xmlns="http://www.w3.org/2000/svg">
<path d="M5.68002 4.97698L9.05502 1.60198C9.13087 1.51342 9.1705 1.39949 9.166 1.28298C9.1615 1.16646 9.11319 1.05593 9.03074 0.97348C8.94829 0.891029 8.83776 0.842727 8.72125 0.838227C8.60473 0.833726 8.49081 0.873359 8.40224 0.949204L5.02724 4.3242L1.65224 0.944574C1.56368 0.868729 1.44975 0.829097 1.33323 0.833597C1.21672 0.838098 1.10619 0.8864 1.02374 0.968851C0.941289 1.0513 0.892986 1.16183 0.888486 1.27835C0.883985 1.39486 0.923618 1.50879 0.999463 1.59735L4.37446 4.97698L0.994834 8.35198C0.94637 8.39349 0.907009 8.44456 0.87922 8.502C0.851432 8.55943 0.835816 8.62199 0.833353 8.68575C0.83089 8.74951 0.841634 8.81309 0.864909 8.8725C0.888184 8.93191 0.923489 8.98587 0.968607 9.03099C1.01372 9.07611 1.06768 9.11141 1.12709 9.13468C1.1865 9.15796 1.25008 9.1687 1.31384 9.16624C1.3776 9.16378 1.44016 9.14816 1.4976 9.12037C1.55503 9.09259 1.60611 9.05322 1.64761 9.00476L5.02724 5.62976L8.40224 9.00476C8.49081 9.08061 8.60473 9.12024 8.72125 9.11574C8.83776 9.11124 8.94829 9.06293 9.03074 8.98048C9.11319 8.89803 9.1615 8.78751 9.166 8.67099C9.1705 8.55447 9.13087 8.44055 9.05502 8.35198L5.68002 4.97698Z" fill="black"/>
</svg>
